<?xml version="1.0" encoding="UTF-8" standalone="no"?>
<svg width="80px" height="92px" viewBox="0 0 80 92" version="1.1" xmlns="http://www.w3.org/2000/svg" xmlns:xlink="http://www.w3.org/1999/xlink" xmlns:sketch="http://www.bohemiancoding.com/sketch/ns">
    <!-- Generator: Sketch 3.2.2 (9983) - http://www.bohemiancoding.com/sketch -->
    <title>Logo</title>
    <desc>Created with Sketch.</desc>
    <defs></defs>
    <g id="Home" stroke="none" stroke-width="1" fill="none" fill-rule="evenodd" sketch:type="MSPage">
        <g id="Desktop" sketch:type="MSArtboardGroup" transform="translate(-170.000000, -100.000000)">
            <g id="Header" sketch:type="MSLayerGroup">
                <g id="Logo" transform="translate(170.000000, 100.000000)" sketch:type="MSShapeGroup">
                    <path d="M26.2493204,23.9667797 L48.9234951,63.4464746 L60.6306796,41.6198644 C60.624466,41.6144068 60.751068,41.9208136 60.9848544,42.4798305 C62.144466,45.2515254 66.0007767,54.376678 70.0947573,64.0561695 C71.3429126,67.0079661 72.6135922,70.009661 73.8353398,72.8983051 L75.1495146,72.1334576 C78.056699,70.4337966 80,67.3112542 80,63.9337627 L80,28.0631186 C80,24.6856271 78.0341748,21.5630847 75.127767,19.8634237 L44.4924272,2.00138983 C41.551068,0.281457627 37.8718447,0.281457627 34.9312621,2.00138983 L4.53980583,19.8634237 C1.63262136,21.5630847 0,24.6856271 0,28.0631186 L0,63.9337627 C0,67.3112542 1.61087379,70.4337966 4.51805825,72.1334576 L5.59223301,72.7642034 L26.2493204,23.9667797" id="Fill-1" fill="#263238"></path>
                    <path d="M63.2481553,68.8924068 L51.6520388,58.3599661 L48.9234951,63.4464746 L59.2318447,81.3942712 L70.111068,75.0649831 L67.5347573,65.8649831 L63.2481553,68.8924068" id="Fill-2" fill="#1976D2"></path>
                    <path d="M67.5347573,65.8649831 L60.9848544,42.4798305 C60.751068,41.9208136 60.624466,41.6144068 60.6306796,41.6198644 L51.6520388,58.3599661 L63.2481553,68.8924068 L67.5347573,65.8649831" id="Fill-3" fill="#EEEEEE"></path>
                    <path d="M67.5347573,65.8649831 L70.111068,75.0649831 L73.8353398,72.8983051 C72.6135922,70.009661 71.3429126,67.0079661 70.0947573,64.0561695 L67.5347573,65.8649831" id="Fill-4" fill="#1465C0"></path>
                    <path d="M70.0947573,64.0561695 C66.0007767,54.376678 62.144466,45.2515254 60.9848544,42.4798305 L67.5347573,65.8649831 L70.0947573,64.0561695" id="Fill-5" fill="#E0E0E0"></path>
                    <path d="M43.5945631,73.3832542 L39.8229126,62.4570847 L32.0287379,69.8841356 L23.2605825,60.1258983 L20.2532039,81.3623051 L34.7541748,89.8660678 L34.975534,89.9954915 C37.9161165,91.7154237 41.5067961,91.7154237 44.4481553,89.9954915 L48.5126214,87.6307797 L43.5945631,73.3832542" id="Fill-6" fill="#2196F3"></path>
                    <path d="M6.86058252,69.7679661 L5.59223301,72.7642034 L15.3141748,78.4650847 L21.5262136,60.6474915 L6.86058252,69.7679661" id="Fill-7" fill="#2196F3"></path>
                    <path d="M23.2605825,60.1258983 L32.0287379,69.8841356 L39.8229126,62.4570847 L26.9700971,25.2220339 L26.2493204,23.9667797 L6.86058252,69.7679661 L21.5262136,60.6474915 L24.3223301,52.6278983 L23.2605825,60.1258983" id="Fill-8" fill="#F6F6F6"></path>
                    <path d="M48.9234951,63.4464746 L45.336699,57.2013898 L39.8229126,62.4570847 L48.5126214,87.6307797 L59.2318447,81.3942712 L48.9234951,63.4464746" id="Fill-9" fill="#1E88E5"></path>
                    <path d="M45.336699,57.2013898 L26.9700971,25.2220339 L39.8229126,62.4570847 L45.336699,57.2013898" id="Fill-10" fill="#E0E0E0"></path>
                    <path d="M22.9390291,59.7688136 L21.5262136,60.6474915 L15.3141748,78.4650847 L20.2532039,81.3623051 L23.2605825,60.1258983 L22.9390291,59.7688136" id="Fill-11" fill="#1E88E5"></path>
                    <path d="M23.2605825,60.1258983 L24.3223301,52.6278983 L21.5262136,60.6474915 L22.9390291,59.7688136 L23.2605825,60.1258983" id="Fill-12" fill="#E0E0E0"></path>
                </g>
            </g>
        </g>
    </g>
</svg>